<?xml version="1.0"?>
<svg xmlns="http://www.w3.org/2000/svg" viewBox="0 0 64 64" width="512px" height="512px"><g><g id="Innovation-thingking-brain-network-idea"><path d="M57,2H31a5,5,0,0,0-4.91,4.07A7.008,7.008,0,0,0,21,9.41a6.985,6.985,0,0,0-12.38.73A7.005,7.005,0,0,0,3,17a6.89,6.89,0,0,0,.29,1.99,6.96,6.96,0,0,0,3.66,10.7A15.373,15.373,0,0,0,12.1,47.26,4.584,4.584,0,0,1,14,51v1.18A3,3,0,0,0,15,58H26.1A5.017,5.017,0,0,0,31,62H57a5,5,0,0,0,5-5V7A5,5,0,0,0,57,2ZM22,13a4.992,4.992,0,0,1,9.04-2.93A7.015,7.015,0,0,0,25,17h2a5,5,0,0,1,4.9-4.99A5.359,5.359,0,0,1,32,13a5,5,0,0,1-5,5v2a7.008,7.008,0,0,0,7-7,5.683,5.683,0,0,0-.03-.59A5,5,0,0,1,32,22v2a6.978,6.978,0,0,0,5.63-2.86A4.823,4.823,0,0,1,38,23a5,5,0,0,1-10,0H26a7.013,7.013,0,0,0,5.91,6.91A5,5,0,0,1,22,29ZM4,23a4.823,4.823,0,0,1,.37-1.86A6.978,6.978,0,0,0,10,24V22a5,5,0,0,1-1.97-9.59A5.683,5.683,0,0,0,8,13a7.008,7.008,0,0,0,7,7V18a5,5,0,0,1-5-5,5.359,5.359,0,0,1,.1-.99A5,5,0,0,1,15,17h2a7.015,7.015,0,0,0-6.04-6.93A4.992,4.992,0,0,1,20,13V29a5,5,0,0,1-9.91.91A7.013,7.013,0,0,0,16,23H14A5,5,0,0,1,4,23Zm9.3,22.66A13.663,13.663,0,0,1,8.47,31.49,6.983,6.983,0,0,0,21,32.59a6.989,6.989,0,0,0,12.53-1.08A12.991,12.991,0,0,1,34,34.92,13.522,13.522,0,0,1,28.64,45.7,6.532,6.532,0,0,0,26,51v1H16V51A6.54,6.54,0,0,0,13.3,45.66ZM27,56H15a1,1,0,0,1,0-2H27a1,1,0,0,1,0,2Zm33,1a3.009,3.009,0,0,1-3,3H31a2.994,2.994,0,0,1-2.88-2.22A3.016,3.016,0,0,0,29.82,56H54V54H29.82A3.035,3.035,0,0,0,28,52.18V51a4.494,4.494,0,0,1,1.84-3.7A15.535,15.535,0,0,0,36,34.92,15.223,15.223,0,0,0,35.87,33H43a1,1,0,0,0,1-1V25h4.14a4,4,0,1,0,0-2H44V13h4.14a4,4,0,1,0,0-2H43a1,1,0,0,0-1,1V31H35.46c-.12-.44-.26-.88-.42-1.31a6.957,6.957,0,0,0,3.67-10.7A6.89,6.89,0,0,0,39,17a7.005,7.005,0,0,0-5.62-6.86A7,7,0,0,0,28.15,6.1,3,3,0,0,1,31,4H57a3.009,3.009,0,0,1,3,3ZM50,24a2,2,0,1,1,2,2A2.006,2.006,0,0,1,50,24Zm0-12a2,2,0,1,1,2,2A2.006,2.006,0,0,1,50,12Z" data-original="#000000" class="active-path" data-old_color="#000000" fill="#FFB400"/><path d="M56.07,45.42l-6.92-5.67,2.04-2.04a1,1,0,0,0-.7-1.71H42a1,1,0,0,0-1,1v8.49a1,1,0,0,0,1.71.7l2.04-2.04,5.67,6.92a.972.972,0,0,0,.72.36.433.433,0,0,1,.05.01,1,1,0,0,0,.71-.3l4.24-4.24a.986.986,0,0,0,.29-.76A.972.972,0,0,0,56.07,45.42Zm-4.8,3.53L45.6,42.02a.972.972,0,0,0-.72-.36h-.05a.99.99,0,0,0-.71.29L43,43.07V38h5.07l-1.12,1.12a.986.986,0,0,0-.29.76.972.972,0,0,0,.36.72l6.93,5.67Z" data-original="#000000" class="active-path" data-old_color="#000000" fill="#FFB400"/></g></g> </svg>
