<?xml version="1.0"?>
<svg xmlns="http://www.w3.org/2000/svg" height="512px" viewBox="0 0 64 64" width="512px"><g><g id="hosting"><path d="m32 19a4 4 0 1 0 -4-4 4 4 0 0 0 4 4zm0-6a2 2 0 1 1 -2 2 2 2 0 0 1 2-2z" data-original="#000000" class="active-path" data-old_color="#000000" fill="#FFB400"/><path d="m31 29h2v2h-2z" data-original="#000000" class="active-path" data-old_color="#000000" fill="#FFB400"/><path d="m31 33h2v7h-2z" data-original="#000000" class="active-path" data-old_color="#000000" fill="#FFB400"/><path d="m57.65 56.37a1 1 0 0 0 -.77-.37h-.88v-27a1 1 0 0 0 -1-1h-6.32l-.69-5.13a.982.982 0 0 0 -.54-.76l-5.49-2.75c-.37-9.43-8.94-16.81-9.31-17.12a1 1 0 0 0 -1.3 0c-.37.31-8.94 7.69-9.31 17.12l-5.49 2.75a.982.982 0 0 0 -.54.76l-.69 5.13h-6.32a1 1 0 0 0 -1 1v27h-.88a1 1 0 0 0 -.77.37.989.989 0 0 0 -.2.84l.87 4a1 1 0 0 0 .98.79h48a1 1 0 0 0 .98-.79l.87-4a.989.989 0 0 0 -.2-.84zm-15.7-34.78 4.13 2.07 1.78 13.34h-2.2l-2.74-6.39a1 1 0 0 0 -.92-.61h-1.67a28.815 28.815 0 0 0 1.62-8.41zm-9.95-17.23c2.01 1.91 8 8.26 8 15.64a25.428 25.428 0 0 1 -2.41 11.31c-.87-3.73-3.01-6.31-5.59-6.31s-4.72 2.58-5.59 6.31a25.428 25.428 0 0 1 -2.41-11.31c0-7.37 5.99-13.72 8-15.64zm0 38.29c-1.27-1.21-4-4.23-4-7.65 0-4.71 2.11-8 4-8s4 3.29 4 8c0 3.42-2.73 6.44-4 7.65zm10-.65v10h-20v-10h6.73a18.636 18.636 0 0 0 2.64 2.78 1.012 1.012 0 0 0 1.26 0 18.636 18.636 0 0 0 2.64-2.78zm-24.08-18.34 4.13-2.07a28.815 28.815 0 0 0 1.62 8.41h-1.67a1 1 0 0 0 -.92.61l-2.74 6.39h-2.2zm-7.92 6.34h5.06l-1.05 7.87a1 1 0 0 0 .24.79.981.981 0 0 0 .75.34h4a1 1 0 0 0 .92-.61l2.74-6.39h1.85a15.5 15.5 0 0 0 1.51 2.46c-.01.18-.02.36-.02.54a10.431 10.431 0 0 0 1.41 5h-6.41a1 1 0 0 0 -1 1v12a1 1 0 0 0 1 1h22a1 1 0 0 0 1-1v-12a1 1 0 0 0 -1-1h-6.41a10.431 10.431 0 0 0 1.41-5c0-.18-.01-.36-.02-.54a15.5 15.5 0 0 0 1.51-2.46h1.85l2.74 6.39a1 1 0 0 0 .92.61h4a.981.981 0 0 0 .75-.34 1 1 0 0 0 .24-.79l-1.05-7.87h5.06v26h-19a1 1 0 0 0 -1 1h-4a1 1 0 0 0 -1-1h-19zm45.2 30h-46.4l-.43-2h19.63a1 1 0 0 0 1 1h6a1 1 0 0 0 1-1h19.63z" data-original="#000000" class="active-path" data-old_color="#000000" fill="#FFB400"/><path d="m46 44h6v2h-6z" data-original="#000000" class="active-path" data-old_color="#000000" fill="#FFB400"/><path d="m47 54h4a1 1 0 0 0 1-1v-4a1 1 0 0 0 -1-1h-4a1 1 0 0 0 -1 1v4a1 1 0 0 0 1 1zm1-4h2v2h-2z" data-original="#000000" class="active-path" data-old_color="#000000" fill="#FFB400"/><path d="m12 44h6v2h-6z" data-original="#000000" class="active-path" data-old_color="#000000" fill="#FFB400"/><path d="m17 48h-4a1 1 0 0 0 -1 1v4a1 1 0 0 0 1 1h4a1 1 0 0 0 1-1v-4a1 1 0 0 0 -1-1zm-1 4h-2v-2h2z" data-original="#000000" class="active-path" data-old_color="#000000" fill="#FFB400"/><path d="m44 8h2v-2h2v-2h-2v-2h-2v2h-2v2h2z" data-original="#000000" class="active-path" data-old_color="#000000" fill="#FFB400"/><path d="m52 14h2v-2h2v-2h-2v-2h-2v2h-2v2h2z" data-original="#000000" class="active-path" data-old_color="#000000" fill="#FFB400"/><path d="m18 8h2v-2h2v-2h-2v-2h-2v2h-2v2h2z" data-original="#000000" class="active-path" data-old_color="#000000" fill="#FFB400"/><path d="m10 14h2v-2h2v-2h-2v-2h-2v2h-2v2h2z" data-original="#000000" class="active-path" data-old_color="#000000" fill="#FFB400"/></g></g> </svg>
