<?xml version="1.0"?>
<svg xmlns="http://www.w3.org/2000/svg" id="Layer_1_1_" enable-background="new 0 0 64 64" height="512px" viewBox="0 0 64 64" width="512px"><g><path d="m5 8c1.654 0 3-1.346 3-3s-1.346-3-3-3-3 1.346-3 3 1.346 3 3 3zm0-4c.551 0 1 .449 1 1s-.449 1-1 1-1-.449-1-1 .449-1 1-1z" data-original="#000000" class="active-path" data-old_color="#000000" fill="#3E4148"/><path d="m32 8c1.654 0 3-1.346 3-3s-1.346-3-3-3-3 1.346-3 3 1.346 3 3 3zm0-4c.551 0 1 .449 1 1s-.449 1-1 1-1-.449-1-1 .449-1 1-1z" data-original="#000000" class="active-path" data-old_color="#000000" fill="#3E4148"/><path d="m41 8c1.654 0 3-1.346 3-3s-1.346-3-3-3-3 1.346-3 3 1.346 3 3 3zm0-4c.551 0 1 .449 1 1s-.449 1-1 1-1-.449-1-1 .449-1 1-1z" data-original="#000000" class="active-path" data-old_color="#000000" fill="#3E4148"/><path d="m59 8c1.654 0 3-1.346 3-3s-1.346-3-3-3-3 1.346-3 3 1.346 3 3 3zm0-4c.551 0 1 .449 1 1s-.449 1-1 1-1-.449-1-1 .449-1 1-1z" data-original="#000000" class="active-path" data-old_color="#000000" fill="#3E4148"/><path d="m11 14c0 1.654 1.346 3 3 3s3-1.346 3-3c0-1.302-.839-2.402-2-2.816v-3.368c.847-.302 1.514-.969 1.816-1.816h3.369c.413 1.161 1.513 2 2.815 2 1.654 0 3-1.346 3-3s-1.346-3-3-3c-1.302 0-2.402.839-2.816 2h-3.369c-.413-1.161-1.513-2-2.815-2-1.654 0-3 1.346-3 3 0 1.302.839 2.402 2 2.816v3.369c-1.161.413-2 1.513-2 2.815zm3 1c-.551 0-1-.449-1-1s.449-1 1-1 1 .449 1 1-.449 1-1 1zm9-11c.551 0 1 .449 1 1s-.449 1-1 1-1-.449-1-1 .449-1 1-1zm-9 0c.551 0 1 .449 1 1s-.449 1-1 1-1-.449-1-1 .449-1 1-1z" data-original="#000000" class="active-path" data-old_color="#000000" fill="#3E4148"/><path d="m23 11c-1.654 0-3 1.346-3 3s1.346 3 3 3 3-1.346 3-3-1.346-3-3-3zm0 4c-.551 0-1-.449-1-1s.449-1 1-1 1 .449 1 1-.449 1-1 1z" data-original="#000000" class="active-path" data-old_color="#000000" fill="#3E4148"/><path d="m53 14c0-1.654-1.346-3-3-3s-3 1.346-3 3 1.346 3 3 3 3-1.346 3-3zm-4 0c0-.551.449-1 1-1s1 .449 1 1-.449 1-1 1-1-.449-1-1z" data-original="#000000" class="active-path" data-old_color="#000000" fill="#3E4148"/><path d="m2 23c0 1.654 1.346 3 3 3s3-1.346 3-3c0-1.302-.839-2.402-2-2.816v-3.369c1.161-.413 2-1.513 2-2.815 0-1.654-1.346-3-3-3s-3 1.346-3 3c0 1.302.839 2.402 2 2.816v3.369c-1.161.413-2 1.513-2 2.815zm3 1c-.551 0-1-.449-1-1s.449-1 1-1 1 .449 1 1-.449 1-1 1zm0-11c.551 0 1 .449 1 1s-.449 1-1 1-1-.449-1-1 .449-1 1-1z" data-original="#000000" class="active-path" data-old_color="#000000" fill="#3E4148"/><path d="m14 26c1.654 0 3-1.346 3-3s-1.346-3-3-3-3 1.346-3 3 1.346 3 3 3zm0-4c.551 0 1 .449 1 1s-.449 1-1 1-1-.449-1-1 .449-1 1-1z" data-original="#000000" class="active-path" data-old_color="#000000" fill="#3E4148"/><path d="m41 26c1.654 0 3-1.346 3-3s-1.346-3-3-3-3 1.346-3 3 1.346 3 3 3zm0-4c.551 0 1 .449 1 1s-.449 1-1 1-1-.449-1-1 .449-1 1-1z" data-original="#000000" class="active-path" data-old_color="#000000" fill="#3E4148"/><path d="m59 20c-1.654 0-3 1.346-3 3s1.346 3 3 3 3-1.346 3-3-1.346-3-3-3zm0 4c-.551 0-1-.449-1-1s.449-1 1-1 1 .449 1 1-.449 1-1 1z" data-original="#000000" class="active-path" data-old_color="#000000" fill="#3E4148"/><path d="m14 35c1.654 0 3-1.346 3-3 0-.462-.113-.894-.301-1.285l5.015-5.015c.392.187.824.3 1.286.3s.894-.113 1.285-.301l5.015 5.015c-.187.392-.3.824-.3 1.286 0 1.302.839 2.402 2 2.816v3.369c-1.161.414-2 1.514-2 2.816 0 1.654 1.346 3 3 3 1.302 0 2.402-.839 2.816-2h3.369c.414 1.161 1.514 2 2.816 2 1.654 0 3-1.346 3-3s-1.346-3-3-3c-1.302 0-2.402.839-2.816 2h-3.369c-.302-.847-.969-1.514-1.816-1.816v-3.369c1.161-.414 2-1.514 2-2.816 0-1.654-1.346-3-3-3-.462 0-.894.113-1.285.301l-5.015-5.015c.044-.093.082-.188.116-.285h3.369c.414 1.161 1.514 2 2.816 2 1.654 0 3-1.346 3-3 0-1.302-.839-2.402-2-2.816v-3.369c.847-.302 1.514-.969 1.816-1.816h3.369c.414 1.161 1.514 2 2.816 2 .462 0 .894-.113 1.285-.301l5.015 5.015c-.189.392-.302.824-.302 1.286 0 1.654 1.346 3 3 3s3-1.346 3-3c0-.462-.113-.894-.301-1.285l5.015-5.015c.392.187.824.3 1.286.3 1.654 0 3-1.346 3-3s-1.346-3-3-3c-.462 0-.894.113-1.285.301l-5.015-5.015c.187-.392.3-.824.3-1.286 0-1.654-1.346-3-3-3s-3 1.346-3 3 1.346 3 3 3c.462 0 .894-.113 1.285-.301l5.015 5.015c-.187.392-.3.824-.3 1.286s.113.894.301 1.285l-5.015 5.015c-.392-.187-.824-.3-1.286-.3s-.894.113-1.285.301l-5.015-5.015c.187-.392.3-.824.3-1.286 0-1.654-1.346-3-3-3-1.302 0-2.402.839-2.816 2h-3.369c-.414-1.161-1.514-2-2.816-2-1.654 0-3 1.346-3 3 0 1.302.839 2.402 2 2.816v3.369c-.847.302-1.514.969-1.816 1.816h-3.369c-.414-1.161-1.514-2-2.816-2-1.654 0-3 1.346-3 3 0 .462.113.894.301 1.285l-5.015 5.015c-.39-.188-.822-.301-1.284-.301-1.654 0-3 1.346-3 3s1.346 3 3 3zm18 7c-.551 0-1-.449-1-1s.449-1 1-1 1 .449 1 1-.449 1-1 1zm9-2c.551 0 1 .449 1 1s-.449 1-1 1-1-.449-1-1 .449-1 1-1zm-8-8c0 .551-.449 1-1 1s-1-.449-1-1 .449-1 1-1 1 .449 1 1zm27-18c0 .551-.449 1-1 1s-1-.449-1-1 .449-1 1-1 1 .449 1 1zm-11-9c0-.551.449-1 1-1s1 .449 1 1-.449 1-1 1-1-.449-1-1zm2 18c0 .551-.449 1-1 1s-1-.449-1-1 .449-1 1-1 1 .449 1 1zm-10-10c.551 0 1 .449 1 1s-.449 1-1 1-1-.449-1-1 .449-1 1-1zm-9 0c.551 0 1 .449 1 1s-.449 1-1 1-1-.449-1-1 .449-1 1-1zm0 9c.551 0 1 .449 1 1s-.449 1-1 1-1-.449-1-1 .449-1 1-1zm-9 0c.551 0 1 .449 1 1s-.449 1-1 1-1-.449-1-1 .449-1 1-1zm-9 9c.551 0 1 .449 1 1s-.449 1-1 1-1-.449-1-1 .449-1 1-1z" data-original="#000000" class="active-path" data-old_color="#000000" fill="#3E4148"/><path d="m23 29c-1.654 0-3 1.346-3 3s1.346 3 3 3 3-1.346 3-3-1.346-3-3-3zm0 4c-.551 0-1-.449-1-1s.449-1 1-1 1 .449 1 1-.449 1-1 1z" data-original="#000000" class="active-path" data-old_color="#000000" fill="#3E4148"/><path d="m41 35c1.654 0 3-1.346 3-3s-1.346-3-3-3-3 1.346-3 3 1.346 3 3 3zm0-4c.551 0 1 .449 1 1s-.449 1-1 1-1-.449-1-1 .449-1 1-1z" data-original="#000000" class="active-path" data-old_color="#000000" fill="#3E4148"/><path d="m50 35c1.654 0 3-1.346 3-3s-1.346-3-3-3-3 1.346-3 3 1.346 3 3 3zm0-4c.551 0 1 .449 1 1s-.449 1-1 1-1-.449-1-1 .449-1 1-1z" data-original="#000000" class="active-path" data-old_color="#000000" fill="#3E4148"/><path d="m59 29c-1.654 0-3 1.346-3 3 0 .462.113.894.301 1.285l-5.015 5.015c-.392-.187-.824-.3-1.286-.3-1.654 0-3 1.346-3 3 0 1.302.839 2.402 2 2.816v3.369c-1.161.414-2 1.514-2 2.816 0 .462.113.894.301 1.285l-5.015 5.015c-.392-.188-.824-.301-1.286-.301-1.654 0-3 1.346-3 3s1.346 3 3 3 3-1.346 3-3c0-.462-.113-.894-.301-1.285l5.015-5.015c.392.187.824.3 1.286.3 1.654 0 3-1.346 3-3 0-1.302-.839-2.402-2-2.816v-3.369c1.161-.414 2-1.514 2-2.816 0-.462-.113-.894-.301-1.285l5.015-5.015c.392.188.824.301 1.286.301 1.654 0 3-1.346 3-3s-1.346-3-3-3zm-18 31c-.551 0-1-.449-1-1s.449-1 1-1 1 .449 1 1-.449 1-1 1zm9-9c-.551 0-1-.449-1-1s.449-1 1-1 1 .449 1 1-.449 1-1 1zm0-9c-.551 0-1-.449-1-1s.449-1 1-1 1 .449 1 1-.449 1-1 1zm9-9c-.551 0-1-.449-1-1s.449-1 1-1 1 .449 1 1-.449 1-1 1z" data-original="#000000" class="active-path" data-old_color="#000000" fill="#3E4148"/><path d="m2 41c0 1.654 1.346 3 3 3 1.302 0 2.402-.839 2.816-2h3.369c.414 1.161 1.514 2 2.816 2 1.654 0 3-1.346 3-3s-1.346-3-3-3c-1.302 0-2.402.839-2.816 2h-3.369c-.302-.847-.969-1.514-1.816-1.816v-3.369c1.161-.413 2-1.513 2-2.815 0-1.654-1.346-3-3-3s-3 1.346-3 3c0 1.302.839 2.402 2 2.816v3.369c-1.161.413-2 1.513-2 2.815zm3 1c-.551 0-1-.449-1-1s.449-1 1-1 1 .449 1 1-.449 1-1 1zm9-2c.551 0 1 .449 1 1s-.449 1-1 1-1-.449-1-1 .449-1 1-1zm-9-9c.551 0 1 .449 1 1s-.449 1-1 1-1-.449-1-1 .449-1 1-1z" data-original="#000000" class="active-path" data-old_color="#000000" fill="#3E4148"/><path d="m23 38c-1.654 0-3 1.346-3 3s1.346 3 3 3 3-1.346 3-3-1.346-3-3-3zm0 4c-.551 0-1-.449-1-1s.449-1 1-1 1 .449 1 1-.449 1-1 1z" data-original="#000000" class="active-path" data-old_color="#000000" fill="#3E4148"/><path d="m59 38c-1.654 0-3 1.346-3 3s1.346 3 3 3 3-1.346 3-3-1.346-3-3-3zm0 4c-.551 0-1-.449-1-1s.449-1 1-1 1 .449 1 1-.449 1-1 1z" data-original="#000000" class="active-path" data-old_color="#000000" fill="#3E4148"/><path d="m5 53c1.654 0 3-1.346 3-3s-1.346-3-3-3-3 1.346-3 3 1.346 3 3 3zm0-4c.551 0 1 .449 1 1s-.449 1-1 1-1-.449-1-1 .449-1 1-1z" data-original="#000000" class="active-path" data-old_color="#000000" fill="#3E4148"/><path d="m23 47c-1.654 0-3 1.346-3 3s1.346 3 3 3 3-1.346 3-3-1.346-3-3-3zm0 4c-.551 0-1-.449-1-1s.449-1 1-1 1 .449 1 1-.449 1-1 1z" data-original="#000000" class="active-path" data-old_color="#000000" fill="#3E4148"/><path d="m32 47c-1.654 0-3 1.346-3 3s1.346 3 3 3 3-1.346 3-3-1.346-3-3-3zm0 4c-.551 0-1-.449-1-1s.449-1 1-1 1 .449 1 1-.449 1-1 1z" data-original="#000000" class="active-path" data-old_color="#000000" fill="#3E4148"/><path d="m41 53c1.654 0 3-1.346 3-3s-1.346-3-3-3-3 1.346-3 3 1.346 3 3 3zm0-4c.551 0 1 .449 1 1s-.449 1-1 1-1-.449-1-1 .449-1 1-1z" data-original="#000000" class="active-path" data-old_color="#000000" fill="#3E4148"/><path d="m62 50c0-1.654-1.346-3-3-3s-3 1.346-3 3c0 1.302.839 2.402 2 2.816v3.369c-1.161.414-2 1.514-2 2.816 0 1.654 1.346 3 3 3s3-1.346 3-3c0-1.302-.839-2.402-2-2.816v-3.369c1.161-.414 2-1.514 2-2.816zm-3-1c.551 0 1 .449 1 1s-.449 1-1 1-1-.449-1-1 .449-1 1-1zm0 11c-.551 0-1-.449-1-1s.449-1 1-1 1 .449 1 1-.449 1-1 1z" data-original="#000000" class="active-path" data-old_color="#000000" fill="#3E4148"/><path d="m5 62c1.654 0 3-1.346 3-3 0-.462-.113-.894-.301-1.285l5.015-5.015c.392.187.824.3 1.286.3s.894-.113 1.285-.301l5.015 5.015c-.187.392-.3.824-.3 1.286 0 1.654 1.346 3 3 3s3-1.346 3-3-1.346-3-3-3c-.462 0-.894.113-1.285.301l-5.015-5.015c.187-.392.3-.824.3-1.286 0-1.654-1.346-3-3-3s-3 1.346-3 3c0 .462.113.894.301 1.285l-5.015 5.015c-.392-.187-.824-.3-1.286-.3-1.654 0-3 1.346-3 3s1.346 3 3 3zm19-3c0 .551-.449 1-1 1s-1-.449-1-1 .449-1 1-1 1 .449 1 1zm-10-10c.551 0 1 .449 1 1s-.449 1-1 1-1-.449-1-1 .449-1 1-1zm-9 9c.551 0 1 .449 1 1s-.449 1-1 1-1-.449-1-1 .449-1 1-1z" data-original="#000000" class="active-path" data-old_color="#000000" fill="#3E4148"/><path d="m11 59c0 1.654 1.346 3 3 3s3-1.346 3-3-1.346-3-3-3-3 1.346-3 3zm4 0c0 .551-.449 1-1 1s-1-.449-1-1 .449-1 1-1 1 .449 1 1z" data-original="#000000" class="active-path" data-old_color="#000000" fill="#3E4148"/><path d="m32 56c-1.654 0-3 1.346-3 3s1.346 3 3 3 3-1.346 3-3-1.346-3-3-3zm0 4c-.551 0-1-.449-1-1s.449-1 1-1 1 .449 1 1-.449 1-1 1z" data-original="#000000" class="active-path" data-old_color="#000000" fill="#3E4148"/><path d="m50 56c-1.654 0-3 1.346-3 3s1.346 3 3 3 3-1.346 3-3-1.346-3-3-3zm0 4c-.551 0-1-.449-1-1s.449-1 1-1 1 .449 1 1-.449 1-1 1z" data-original="#000000" class="active-path" data-old_color="#000000" fill="#3E4148"/></g> </svg>
