<?xml version="1.0"?>
<svg xmlns="http://www.w3.org/2000/svg" id="Capa_1" enable-background="new 0 0 512 512" height="512px" viewBox="0 0 512 512" width="512px"><g><g><path d="m222.854 332.672c-10.456 2.024-19.977 7.09-27.535 14.647-20.797 20.797-20.797 54.637 0 75.434 10.398 10.398 24.057 15.597 37.716 15.597s27.318-5.199 37.716-15.597c8.23-8.23 12.91-18.289 13.536-29.092.122-2.12.088-4.284-.1-6.431-.36-4.1-3.981-7.136-8.076-6.774-4.1.36-7.133 3.975-6.774 8.077.125 1.431.148 2.868.067 4.268-.417 7.195-3.51 13.726-9.195 19.41-14.985 14.985-39.367 14.985-54.351 0-14.985-14.985-14.985-39.366 0-54.35 5.447-5.447 12.304-9.097 19.828-10.553 4.041-.782 6.683-4.693 5.901-8.735-.781-4.041-4.688-6.678-8.733-5.901z" data-original="#000000" class="active-path" data-old_color="#000000" fill="#0E1012"/><path d="m378.6 171.684h-56.814v-37.415c0-8.964 1.227-17.884 3.648-26.511l9.254-32.987c2.435-8.679 2.868-17.954 1.253-26.824-.737-4.05-4.62-6.729-8.668-5.998-4.05.738-6.735 4.619-5.997 8.669 1.212 6.655.887 13.614-.94 20.126l-9.254 32.986c-2.788 9.94-4.202 20.215-4.202 30.539v37.415h-49.983v-37.415c0-10.323-1.414-20.598-4.203-30.539l-9.254-32.985c-3.526-12.57-1.405-26.014 5.818-36.888l10.378-15.621c1.385-2.085 3.706-3.33 6.208-3.33h32.088c2.502 0 4.823 1.245 6.208 3.33l3.984 5.997c2.278 3.429 6.904 4.36 10.333 2.084 3.429-2.279 4.361-6.904 2.084-10.333l-3.984-5.997c-4.156-6.253-11.118-9.987-18.626-9.987h-32.088c-7.507 0-14.47 3.734-18.625 9.987l-10.378 15.622c-9.627 14.492-12.454 32.411-7.754 49.164l9.254 32.986c2.421 8.63 3.649 17.549 3.649 26.511v37.415h-60.658c-15.07 0-27.329 12.26-27.329 27.329v42.369c0 15.016 4.677 28.954 12.636 40.458-8.846 5.247-17.027 11.577-24.368 18.917-23.343 23.344-36.198 54.426-36.198 87.522 0 33.097 12.855 64.18 36.198 87.522 23.342 23.343 54.425 36.198 87.521 36.198 23.289 0 45.966-6.477 65.579-18.731 3.491-2.181 4.553-6.779 2.372-10.27-2.182-3.492-6.779-4.556-10.271-2.372-17.242 10.772-37.187 16.466-57.681 16.466-29.115 0-56.454-11.304-76.981-31.833-20.527-20.526-31.832-47.865-31.832-76.98 0-29.114 11.305-56.453 31.832-76.981 7.09-7.09 15.058-13.121 23.721-17.975 4.04 3.796 8.519 7.122 13.355 9.903-9.807 4.596-18.798 10.875-26.536 18.613-36.635 36.636-36.635 96.245 0 132.881 18.318 18.317 42.38 27.476 66.441 27.476s48.122-9.159 66.439-27.476c36.635-36.636 36.635-96.245 0-132.881-3.323-3.324-6.893-6.379-10.659-9.156h22.551c38.963 40.369 40.784 104.554 3.854 146.999-2.702 3.106-2.375 7.814.731 10.515 1.412 1.229 3.154 1.83 4.889 1.83 2.081 0 4.152-.868 5.626-2.561 38.957-44.775 39.991-110.822 4.565-156.783h6.84c39.316 0 71.302-31.986 71.302-71.301v-42.369c.001-15.069-12.259-27.33-27.328-27.33zm-92.91 160.697c30.823 30.823 30.823 80.976 0 111.798-30.822 30.824-80.974 30.823-111.798 0-30.823-30.822-30.823-80.975 0-111.798 10.195-10.195 22.963-17.395 36.921-20.821.251-.062.495-.135.733-.22 4.454.874 9.051 1.345 13.757 1.345h27.538c12.344 3.742 23.685 10.531 32.849 19.696zm48.937-34.604h-109.324c-31.096 0-56.395-25.298-56.395-56.394v-12.816h33.682c4.116 0 7.453-3.337 7.453-7.453s-3.337-7.453-7.453-7.453h-33.682v-14.647c0-6.85 5.573-12.422 12.422-12.422h197.27c6.85 0 12.422 5.573 12.422 12.422v14.647h-154.275c-4.116 0-7.453 3.337-7.453 7.453s3.337 7.453 7.453 7.453h154.275v12.816c0 31.096-25.299 56.394-56.395 56.394z" data-original="#000000" class="active-path" data-old_color="#000000" fill="#0E1012"/></g></g> </svg>
